<?xml version="1.0" encoding="UTF-8" standalone="no"?>
<!-- Created with Inkscape (http://www.inkscape.org/) -->

<svg
   version="1.1"
   id="svg1"
   width="588"
   height="292"
   viewBox="0 0 588 292"
   sodipodi:docname="logo_light.svg"
   inkscape:version="1.3.2 (091e20e, 2023-11-25, custom)"
   xmlns:inkscape="http://www.inkscape.org/namespaces/inkscape"
   xmlns:sodipodi="http://sodipodi.sourceforge.net/DTD/sodipodi-0.dtd"
   xmlns="http://www.w3.org/2000/svg"
   xmlns:svg="http://www.w3.org/2000/svg">
  <defs
     id="defs1" />
  <sodipodi:namedview
     id="namedview1"
     pagecolor="#ffffff"
     bordercolor="#000000"
     borderopacity="0.25"
     inkscape:showpageshadow="2"
     inkscape:pageopacity="0.0"
     inkscape:pagecheckerboard="0"
     inkscape:deskcolor="#d1d1d1"
     showgrid="false"
     inkscape:zoom="2.3078231"
     inkscape:cx="272.33456"
     inkscape:cy="135.40899"
     inkscape:window-width="1920"
     inkscape:window-height="991"
     inkscape:window-x="-9"
     inkscape:window-y="-9"
     inkscape:window-maximized="1"
     inkscape:current-layer="g1" />
  <g
     inkscape:groupmode="layer"
     inkscape:label="Image"
     id="g1">
    <path
       style="fill:#ffffff"
       d="m 166.88559,280.33457 c -0.26707,-0.69599 -0.48559,-4.11599 -0.48559,-7.6 V 266.4 h 5.2 5.2 v 1.554 1.554 l -3.4,0.246 L 170,270 v 1.2 1.2 l 2.64821,0.25428 2.6482,0.25428 -0.25638,1.34572 -0.25638,1.34572 -1.99182,0.28065 c -2.30144,0.32428 -3.16234,1.38547 -3.17958,3.91935 l -0.0122,1.8 h -1.11441 c -0.61292,0 -1.33292,-0.56944 -1.6,-1.26543 z m 15.90024,-4.61116 c -0.30287,-3.23213 -0.41866,-6.56213 -0.2573,-7.4 L 182.82191,266.8 h 1.18905 1.18904 l 0.21097,3.6 c 0.11604,1.98 0.3929,4.41 0.61525,5.4 l 0.40426,1.8 h 2.65143 c 3.1675,0 3.6742,0.39504 3.13778,2.44632 l -0.4063,1.55368 h -4.23844 -4.23844 z M 196.84911,281 c 0.027,-0.33 1.41855,-3.66 3.09232,-7.4 l 3.04321,-6.8 h 1.4819 1.48191 l 2.52069,6.8 c 2.56081,6.90823 2.66684,8 0.77695,8 h -1.05948 l -0.41841,-1.6 -0.41841,-1.6 h -3.08246 -3.08246 l -0.99921,1.6 c -0.9508,1.52247 -3.44039,2.26863 -3.33655,1 z M 205.6,274.13333 c 0,-1.66035 -0.94686,-2.20736 -2.12639,-1.22843 -1.5507,1.28696 -1.31948,2.2951 0.52639,2.2951 h 1.6 z m 36.33891,6.39596 c -0.22598,-0.58889 -0.30468,-3.91889 -0.17489,-7.4 L 242,266.8 l 4.1702,0.0326 4.1702,0.0325 2.0298,1.9069 2.0298,1.9069 v 2.33712 c 0,1.28541 -0.61155,3.37238 -1.359,4.63771 l -1.359,2.3006 -2.36038,0.82284 c -1.29821,0.45256 -3.39796,0.82283 -4.66611,0.82283 h -2.30573 z m 9.52501,-4.6485 0.82597,-1.3192 -1.36339,-2.0808 L 249.56312,270.4 H 247.18156 244.8 v 3.64829 3.64829 l 2.91898,-0.24829 2.91898,-0.24829 z m 9.26941,5.38946 c -0.18333,-0.18136 -0.21656,-3.64894 -0.0738,-7.70572 l 0.25949,-7.37596 4.80371,0.43558 c 5.15533,0.46747 5.9334,0.79066 5.11019,2.12263 L 270.30557,269.6 H 267.15279 264 v 1.6 1.6 h 2.8 2.8 v 1.2 1.2 h -2.8 -2.8 v 1.6 1.6 h 3.2 3.2 v 1.6 1.6 h -4.66667 c -2.56666,0 -4.81666,-0.14839 -5,-0.32975 z m 16.59306,-0.21052 C 277.03688,280.77021 276.8,277.30333 276.8,273.35556 v -7.17778 l 4.8632,0.44098 c 5.21437,0.47282 5.99426,0.79385 5.16969,2.12802 L 286.30557,269.6 H 283.15279 280 v 1.6 1.6 h 2.85866 2.85866 l -0.26521,1.4 -0.26521,1.4 -2.59345,0.25069 L 280,276.10137 v 1.85136 c 0,1.94545 -1.77381,4.00679 -2.67361,3.107 z m 15.26688,-0.0947 C 292.45139,280.65428 292.22294,277.43 292.08561,273.8 l -0.24969,-6.6 h 1.68204 1.68204 v 6.71441 6.71441 l -1.17438,0.45065 c -0.64591,0.24786 -1.29047,0.19637 -1.43235,-0.11441 z m 41.53614,-3.57609 -3.65908,-4.18897 -0.0352,3.8 -0.0352,3.8 h -1.2 -1.2 v -6.8 -6.8 h 1.53079 1.53079 l 2.41886,3.28913 2.41885,3.28913 0.25036,-3.48223 0.25035,-3.48223 1.4,-0.26556 1.4,-0.26556 v 7.21145 7.21144 l -0.70575,0.43618 -0.70576,0.43618 z M 370.2,280.75493 c -0.77,-0.45894 -1.4,-1.38515 -1.4,-2.05825 v -1.22381 l 2.38048,0.52284 c 1.30927,0.28757 2.73354,0.30464 3.16506,0.038 l 0.78458,-0.4849 -0.45065,-1.17438 c -0.24786,-0.64591 -0.93206,-1.17438 -1.52045,-1.17438 -0.58839,0 -2.06186,-0.85333 -3.27437,-1.89629 l -2.20457,-1.89629 1.37008,-2.09101 1.37008,-2.09101 1.91537,-0.48072 1.91536,-0.48073 1.67452,0.89617 c 0.92098,0.4929 1.67451,1.24351 1.67451,1.66803 V 269.6 h -3.2 -3.2 v 0.78374 c 0,0.43106 1.3956,1.49572 3.10133,2.36592 1.70573,0.8702 3.34213,2.2097 3.63645,2.97666 l 0.53511,1.39448 -1.51556,2.0396 -1.51557,2.0396 -1.92088,0.19468 C 372.4644,281.50175 370.97,281.21386 370.2,280.75493 Z m 17.2,0.24922 -1,-0.33748 V 275.13333 269.6 h -2.05866 -2.05866 l 0.26693,-1.4 0.26693,-1.4 5.39173,-0.23655 5.39173,-0.23655 v 1.58341 1.58341 l -2.2,0.25314 -2.2,0.25314 -0.4,5.67082 -0.4,5.67082 z m 13.21617,-0.97704 c -1.09977,-0.86508 -2.45872,-2.6813 -3.01987,-4.03604 l -1.02028,-2.46317 0.89568,-1.96579 c 1.00161,-2.1983 5.35068,-5.15454 7.58984,-5.15912 l 1.46154,-0.003 2.33846,2.33846 2.33846,2.33846 v 2.77694 2.77693 l -2.32097,2.48461 -2.32097,2.4846 h -1.97114 -1.97115 z m 6.77158,-3.53493 c 1.71537,-2.60385 0.005,-6.09218 -2.98775,-6.09218 -3.44172,0 -4.88022,4.20549 -2.3157,6.77001 l 1.2843,1.2843 1.7157,-0.53498 c 0.94363,-0.29424 1.98019,-0.93646 2.30345,-1.42715 z m 9.94558,4.57449 C 417.04,280.77333 416.8,277.55458 416.8,273.91388 v -6.61945 l 0.8568,-0.52953 c 0.47124,-0.29125 2.44694,-0.29108 4.39044,3.7e-4 l 3.53364,0.5299 1.20956,1.20956 1.20956,1.20956 v 2.07986 2.07986 l -1.30544,1.4425 -1.30544,1.44249 1.30544,1.99235 c 2.46527,3.76248 -0.0726,4.16609 -2.82106,0.44865 -0.97592,-1.32 -2.20169,-2.4 -2.72395,-2.4 H 420.2 l -0.48,2.4 c -0.4651,2.32548 -1.28589,2.96744 -2.38667,1.86667 z m 7.88833,-8.30171 0.51608,-0.83505 -0.96682,-1.16495 -0.96683,-1.16496 h -1.85483 c -2.1149,0 -3.09698,1.13994 -2.44526,2.83831 l 0.44578,1.16169 h 2.3779 c 1.30784,0 2.61013,-0.37577 2.89398,-0.83504 z M 433.6,274.4 v -7.2 h 5.2 5.2 v 1.154 1.154 l -3.4,0.246 -3.4,0.246 v 1.2 1.2 l 2.73641,0.4 2.73641,0.4 0.33025,1 0.33026,1 H 440.46667 437.6 v 1.6 1.6 h 3.2 3.2 v 1.6 1.6 h -5.2 -5.2 z m -215.36345,1 L 218,270 l -1.8,-0.25564 -1.8,-0.25564 V 267.94436 266.4 h 1.88834 c 1.03859,0 3.55859,0.22893 5.6,0.50874 l 3.71166,0.50874 v 1.00453 1.00454 l -2,0.50197 -2,0.50196 v 5.18476 5.18476 h -1.56345 -1.56345 z M 301.6,273.6 v -7.2 h 0.89242 c 0.49083,0 2.29083,1.52984 4,3.39964 L 309.6,273.19929 V 269.79964 266.4 h 1.08857 1.08856 l 0.50448,4.2 c 0.27747,2.31 0.50761,5.55 0.51144,7.2 l 0.007,3 h -0.7806 c -0.42933,0 -1.92717,-1.26 -3.32854,-2.8 -1.40137,-1.54 -2.83379,-2.8 -3.18315,-2.8 -0.34937,0 -0.87159,1.26 -1.16049,2.8 l -0.52529,2.8 H 302.71097 301.6 Z m 17.6,0.4 v -6.8 h 1.2 1.2 v 6.8 6.8 h -1.2 -1.2 z m 26.87111,4.33862 L 344,275.87724 V 274 272.12276 l 2.03514,-2.41862 c 1.11932,-1.33024 2.69177,-2.62703 3.49433,-2.88175 l 1.4592,-0.46314 2.10566,0.80058 2.10567,0.80057 v 1.32447 1.32448 l -2.73158,-0.44328 -2.73157,-0.44327 -1.36324,1.50636 -1.36324,1.50637 0.51688,2.05944 0.51689,2.05944 1.99963,0.9111 1.99963,0.91109 0.9783,-0.98812 0.9783,-0.98813 -1.41683,-0.79934 -1.41682,-0.79935 0.46404,-0.75083 c 0.25522,-0.41296 1.46044,-0.75083 2.67827,-0.75083 h 2.21423 l -0.36195,2.6 c -0.19908,1.43 -0.72081,3.05 -1.1594,3.6 l -0.79745,1 h -3.03093 -3.03093 z M 175.27202,245.4 c -1.01587,-2.75 -2.49465,-7.07 -3.28618,-9.6 l -1.43916,-4.6 h 2.29582 2.29583 l 0.78651,3 c 0.43258,1.65 1.02549,3.99 1.31756,5.2 0.81863,3.39135 1.6729,2.66352 3.57202,-3.04332 l 1.74486,-5.24332 1.27578,0.24569 1.27578,0.24569 1.59861,4.99763 C 188.65523,242.68529 192,240.26141 192,232.76843 v -1.34656 l 2.02292,0.38671 2.02292,0.38671 -0.53127,1.70235 c -0.2922,0.9363 -1.38252,3.63715 -2.42292,6.0019 -1.04041,2.36475 -1.89165,4.94531 -1.89165,5.73457 0,0.78927 -0.21852,2.00447 -0.48559,2.70046 L 190.22882,249.6 h -1.76301 -1.76301 l -1.48678,-4.96344 -1.48679,-4.96344 -0.65218,1.56344 c -0.3587,0.85989 -1.36498,3.27344 -2.23618,5.36344 l -1.58401,3.8 h -1.06891 -1.06891 z m 46.99267,1.05105 c -0.0744,-2.00808 -0.17072,-6.09513 -0.21399,-9.08234 l -0.0787,-5.4313 5.58645,0.2313 5.58646,0.23129 1.22614,2.19012 1.22613,2.19012 -1.08146,1.73171 -1.08147,1.7317 1.28286,0.71793 L 236,241.6795 v 2.2208 2.2208 l -1.8,1.65047 -1.8,1.65048 -5,0.34002 -5,0.34003 z m 9.58713,-2.25105 -0.2655,-1.4 -2.29062,-0.26254 -2.29062,-0.26254 -0.79283,0.79283 -0.79284,0.79284 0.53751,0.8697 0.53751,0.86971 h 2.81144 2.81145 z M 230.4,236.8 v -1.6 h -2.4 -2.4 v 1.6 1.6 h 2.4 2.4 z m 29.13475,12.85519 c -0.91589,-0.38716 -2.62589,-1.84559 -3.8,-3.24094 L 253.6,243.87724 v -3.24416 -3.24416 l 2.7864,-2.62791 2.78639,-2.62791 2.46644,-0.54172 2.46645,-0.54172 2.28967,0.94842 c 1.25933,0.52162 2.47415,1.42913 2.69961,2.01668 l 0.40993,1.06826 -1.08122,0.89734 -1.08123,0.89733 -0.51843,-0.83884 C 266.53887,235.57748 265.29537,235.2 264.06067,235.2 h -2.2449 l -2.10788,1.65806 -2.10789,1.65807 v 1.49732 c 0,0.82353 0.83012,2.4624 1.84472,3.64194 l 1.84471,2.14461 1.95529,-0.10688 c 1.0754,-0.0588 2.81884,-0.19378 3.87431,-0.3 l 1.91904,-0.19312 0.33063,0.94901 0.33064,0.94901 -1.89149,1.23936 c -2.46097,1.61248 -6.1761,2.20427 -8.2731,1.31781 z m 122.41675,-0.37903 c -0.87473,-0.61268 -2.84166,-2.94977 -4.37096,-5.19352 -3.55407,-5.21445 -3.98054,-5.13131 -3.98054,0.77602 v 4.85866 l -1.4,-0.26804 -1.4,-0.26804 -0.22943,-8.32119 -0.22943,-8.32119 0.69566,-0.69566 0.69565,-0.69565 1.13378,0.47603 c 0.62357,0.26181 2.57377,2.2485 4.33377,4.41486 4.04816,4.98283 4.4,4.94308 4.4,-0.4971 v -4.45866 l 1.4,0.26804 1.4,0.26804 0.22821,8.21124 0.22822,8.21123 -0.65726,1.17445 -0.65725,1.17445 z m 14.8364,-0.67616 -2.64872,-1.8 -1.55361,-3.01077 -1.55361,-3.01078 0.47582,-1.89585 c 0.66328,-2.6427 4.62789,-6.68538 7.18591,-7.3274 l 2.13737,-0.53645 2.38447,0.98768 2.38447,0.98768 v 1.46525 1.46526 l -3.84928,-0.45589 -3.84927,-0.45589 -1.35073,1.35072 -1.35072,1.35073 v 2.2034 2.20341 l 1.95801,1.83945 1.958,1.83945 h 2.13298 2.13298 l 0.67638,-1.09441 0.67639,-1.09442 -1.5851,-0.58636 c -4.07994,-1.50927 -2.90419,-4.06032 1.54356,-3.3491 L 408,240.20449 v 1.93748 c 0,1.06562 -0.513,2.92952 -1.14,4.14201 l -1.14001,2.20452 -2.09764,0.95575 c -2.91142,1.32654 -3.80201,1.21652 -6.83445,-0.84425 z m 89.87101,0.4 c -0.50543,-1.4415 -3.39379,-4.15063 -4.45891,-4.18221 -0.33,-0.01 -0.6,0.88221 -0.6,1.98221 v 2 h -1.6 -1.6 v -7.13457 c 0,-3.92401 0.21852,-7.70401 0.48559,-8.4 L 479.37118,232 h 4.61646 4.61645 l 0.83364,1.00448 c 2.03584,2.45303 2.06557,8.83024 0.0391,8.37927 -0.45413,-0.10106 -1.24219,0.47978 -1.75125,1.29077 l -0.92555,1.47452 1.8,1.22306 1.8,1.22306 v 1.90242 1.90242 h -1.62511 -1.62511 z m -0.72434,-9.48559 c 2.69508,-1.0342 0.35188,-4.31441 -3.08198,-4.31441 H 481.6 v 1.86667 c 0,2.83355 1.34697,3.59419 4.33457,2.44774 z m -345.43826,9.44143 c -0.97726,-1.58125 4.04965,-14.60998 6.13405,-15.89821 l 0.82876,-0.5122 1.40978,1.741 c 0.77538,0.95755 2.20975,4.16483 3.1875,7.12728 0.97775,2.96246 1.94356,5.83629 2.14625,6.38629 l 0.36853,1 h -1.9102 -1.9102 l -0.9059,-2.4 -0.9059,-2.4 h -2.11031 -2.11031 l -1.16992,2.8 c -1.13291,2.71144 -2.22987,3.48627 -3.05213,2.15584 z M 147.26,239.78 c -0.099,-0.95656 -1.19623,-0.77131 -1.54,0.26 l -0.32,0.96 0.96,-0.32 c 0.528,-0.176 0.933,-0.581 0.9,-0.9 z m 55.14,1.42 c 0,-4.62 0.008,-8.67 0.017,-9 l 0.017,-0.6 6.18296,0.28857 c 7.03697,0.32843 6.7877,0.24704 6.1162,1.99693 L 214.22882,235.2 H 210.31441 206.4 v 1.50916 1.50917 l 3.6,0.53985 3.6,0.53986 v 1.55098 1.55098 h -3.6 -3.6 v 1.6 1.6 h 3.44 3.44 l 0.96,0.96 c 0.528,0.528 0.96,1.428 0.96,2 v 1.04 h -6.4 -6.4 z m 73.87469,6.02653 C 276.56361,245.78194 276.8,241.765 276.8,238.3 V 232 h 1.6 1.6 v 6.8 6.8 h 3.62511 3.62511 l 0.47372,1.2345 c 0.69386,1.80819 0.2408,1.99448 -6.15452,2.53064 l -5.82003,0.48793 z m 19.68854,0.17347 -2.46202,-2.2 -0.44205,-3.29647 -0.44206,-3.29647 2.93594,-3.24974 2.93594,-3.24974 2.35752,-0.51779 2.35752,-0.5178 2.66063,1.64436 c 5.85971,3.6215 5.87971,10.62221 0.0435,15.21301 L 303.78423,249.6 h -2.6795 -2.67949 z m 9.67215,-3.04263 c 0.56721,-0.68344 1.03129,-2.32344 1.03129,-3.64444 v -2.40182 l -1.66055,-1.66055 -1.66055,-1.66055 -2.01684,0.5062 c -4.28867,1.07638 -5.75561,4.79616 -3.28337,8.32579 l 1.24537,1.778 h 2.65668 2.65668 z m 14.7247,4.53605 C 320.16204,248.69537 320,245.53333 320,241.86667 V 235.2 h -2.4 -2.4 v -1.87657 -1.87657 l 4.57127,-0.14937 c 2.5142,-0.0822 5.5742,0.0709 6.8,0.34013 l 2.22873,0.48951 v 1.53643 1.53644 h -2.34243 -2.34244 l -0.54849,4.38993 c -0.30166,2.41447 -0.31528,5.63302 -0.0303,7.15234 l 0.51823,2.76241 -1.66723,-0.12559 c -0.91697,-0.0691 -1.82926,-0.28763 -2.02731,-0.48567 z M 336,240.4749 v -9.12511 l 1.6,0.41841 1.6,0.41841 v 3.1067 3.10669 h 4 4 v -3.6 -3.6 h 1.6262 1.6262 l -0.2262,8.99042 -0.2262,8.99042 -1.4,0.26824 -1.4,0.26824 v -3.52533 c 0,-4.33204 0.0197,-4.31244 -3.95844,-3.93307 L 340,242.56806 v 3.51597 3.51597 h -2 -2 z m 22.4,0.0556 v -9.18075 l 1.6,0.41841 1.6,0.41841 0.13333,7.1067 c 0.0733,3.90868 0.16334,7.73669 0.2,8.50669 l 0.0667,1.4 -1.8,0.25564 -1.8,0.25564 z m 67.8,8.20538 -1.4,-0.81542 v -1.64698 -1.64697 l 2.2,0.58103 c 1.21,0.31957 2.73983,0.6286 3.39961,0.68673 l 1.19962,0.10569 0.24637,-1.72634 0.24637,-1.72633 -2.33787,-0.51349 c -5.56139,-1.22148 -7.03195,-4.87907 -3.41564,-8.49538 L 428.67692,231.2 H 430.33846 432 l 1.68,1.68 1.68,1.68 -0.79411,0.79411 -0.79412,0.79412 -1.62793,-0.87125 -1.62793,-0.87124 -1.25796,0.48272 C 428.56608,235.15396 428,235.83364 428,236.39886 v 1.02769 l 2.2,0.54603 c 1.21,0.30031 3.01,1.30209 4,2.22617 l 1.8,1.68015 v 1.50028 c 0,0.82515 -0.54924,2.5624 -1.22054,3.86055 l -1.22055,2.36027 -2.97945,-0.0243 c -1.6387,-0.0134 -3.60946,-0.39127 -4.37946,-0.83975 z m 37.01113,-0.53716 -2.78887,-1.39876 -0.99934,-2 c -0.54963,-1.1 -1.00464,-3.31271 -1.01113,-4.91713 L 458.4,236.96575 461.22784,234.48287 464.05567,232 h 3.15372 3.15373 l 1.24613,1.90184 c 0.68538,1.04602 1.57144,3.0361 1.96902,4.4224 l 0.72289,2.52055 -0.8614,2.5776 c -0.47377,1.41769 -1.59428,3.38761 -2.49003,4.37761 l -1.62863,1.8 -1.66055,-0.001 c -0.9133,-6.9e-4 -2.91554,-0.63069 -4.44942,-1.4 z M 470.24,244.64 l 0.96,-0.96 v -2.77701 -2.777 l -1.32399,-1.463 -1.32399,-1.46299 h -1.81795 -1.81794 l -1.65807,2.10789 c -2.08749,2.65382 -2.09435,4.32211 -0.0269,6.54126 l 1.63117,1.75085 h 2.20883 c 1.21486,0 2.64084,-0.432 3.16884,-0.96 z m 28.33808,3.95632 -2.62191,-0.84035 0.11062,-7.39573 0.11063,-7.39572 2.41129,-0.48226 C 499.91492,232.21702 502.215,232 503.7,232 h 2.7 v 1.55292 1.55292 l -3.39368,0.67113 -3.39367,0.67113 -0.26499,1.37595 -0.26498,1.37595 h 3.65866 3.65866 v 2 2 h -4 -4 v 0.75819 0.75819 l 4.19251,0.24181 4.1925,0.24181 0.28621,1.50414 0.28621,1.50414 -1.07872,0.68361 c -1.38961,0.88063 -4.39013,0.76547 -7.70063,-0.29557 z M 445.6,242 v -6.8 h -2.85391 -2.85391 l 0.55329,-1.8 c 0.30431,-0.99 0.59857,-1.8438 0.65391,-1.89734 0.0553,-0.0535 3.07062,0.0827 6.70062,0.30279 l 6.6,0.40013 v 1.49721 1.49721 h -2.85878 -2.85878 l 0.25878,6.80187 0.25878,6.80186 -1.8,-0.002 -1.8,-0.002 z m -402.428711,1.94635 -0.885004,-1.65364 1.28655,-1.96353 1.286551,-1.96352 15.370307,0.21717 L 75.6,238.8 l 0.26863,2.36055 0.26863,2.36055 -1.421534,1.03945 L 73.294193,245.6 H 58.675243 44.056294 Z m 53.782624,1.00238 -1.846086,-0.27209 0.246086,-2.53832 L 95.6,239.6 l 18,-0.4 c 9.9,-0.22 18.63,-0.26801 19.4,-0.10669 l 1.4,0.2933 v 1.87855 1.87855 l -1.4,0.73459 -1.4,0.7346 -16.4,0.30396 c -9.02,0.16718 -17.230739,0.18152 -18.246087,0.0319 z m 427.304187,0.003 c -0.95805,-0.13641 -2.15779,-0.74914 -2.6661,-1.36161 l -0.92419,-1.11358 0.52001,-1.63839 0.52,-1.63839 H 536.4 551.09218 l 0.47205,1.4873 c 0.57654,1.81651 -0.20703,4.08338 -1.44982,4.19433 -2.52779,0.22567 -24.34856,0.28503 -25.85631,0.0703 z m -373.2991,-24.596 c -2.11254,-0.67556 -5.71905,-2.42967 -8.01444,-3.89802 l -4.17346,-2.66972 -1.06897,-1.99741 -1.06898,-1.9974 1.4194,-2.99116 1.41939,-2.99116 2.46403,-1.50256 c 1.35522,-0.82641 2.93528,-1.5039 3.51124,-1.50555 l 1.04722,-0.003 -0.4418,0.71484 -0.44179,0.71484 3.83535,4.08516 3.83535,4.08516 1.55923,-0.0284 1.55923,-0.0283 -2,-1.2269 -2,-1.22691 1.6,0.56095 c 0.88,0.30852 3.22,0.90111 5.2,1.31685 l 3.6,0.75591 2.23606,-0.85551 2.23606,-0.85551 1.07896,-2.56611 1.07897,-2.56611 -0.59749,-1.63998 c -0.9323,-2.55896 -6.16459,-5.68308 -14.10519,-8.42198 l -7.27263,-2.50851 -3.03069,-2.49815 -3.03069,-2.49815 -1.47911,-3.2566 c -1.74653,-3.84537 -1.85481,-5.91832 -0.54136,-10.36377 l 0.9729,-3.29282 4.12204,-4.14711 4.12204,-4.14711 4.64729,-1.351 4.64729,-1.351 4.85806,0.38995 4.85806,0.38996 4.17453,1.79584 c 2.29599,0.9877 4.63586,2.37067 5.19971,3.07325 L 178,165.1302 l -2.8,-1.67388 c -1.54,-0.92064 -3.7,-1.89136 -4.8,-2.15717 l -2,-0.48328 2.01644,0.99206 c 3.66663,1.80394 5.92229,3.75938 7.83728,6.79417 l 1.89171,2.9979 -0.47922,-2.4 -0.47922,-2.4 1.17146,2 1.17146,2 -0.45958,1.6 c -0.25277,0.88 -1.01279,2.23 -1.68894,3 l -1.22937,1.4 H 173.87601 169.6 v -0.63022 c 0,-0.34662 -0.99,-1.80811 -2.2,-3.24774 l -2.2,-2.61753 -3.44792,-0.76705 -3.44791,-0.76705 -2.64859,1.25684 -2.6486,1.25684 -0.84934,1.75795 -0.84935,1.75796 -0.0541,-1.44721 -0.0541,-1.44722 -0.8,0.49443 c -0.44,0.27193 -0.8,1.51589 -0.8,2.76434 v 2.26991 l 2.82784,2.48288 c 1.55531,1.36558 3.25171,2.48287 3.76978,2.48287 h 0.94194 l -2.76978,-2.46742 -2.76978,-2.46743 2.20553,1.58691 c 1.21304,0.8728 5.53304,2.89325 9.6,4.48989 4.06696,1.59665 8.29447,3.44789 9.39447,4.11389 l 2,1.2109 -2,-0.54835 -2,-0.54835 3.86285,3.51498 3.86284,3.51498 1.51104,4.4 1.51104,4.4 0.0261,-2.22569 c 0.0339,-2.88636 -1.57708,-6.66922 -4.33277,-10.17431 l -2.20136,-2.8 3.63529,3.82787 3.63528,3.82787 0.51421,3.42901 0.51422,3.42901 -0.87011,3.23132 -0.8701,3.23131 -3.22772,3.66689 -3.22772,3.66688 -4.43335,2.16903 -4.43335,2.16904 -5.7382,0.26802 -5.7382,0.26802 z M 157.6,210.8 c 0,-0.22 -0.18,-0.4 -0.4,-0.4 -0.22,0 -0.4,0.18 -0.4,0.4 0,0.22 0.18,0.4 0.4,0.4 0.22,0 0.4,-0.18 0.4,-0.4 z m 12.8,-23.2 c 0,-0.22 -0.18,-0.4 -0.4,-0.4 -0.22,0 -0.4,0.18 -0.4,0.4 0,0.22 0.18,0.4 0.4,0.4 0.22,0 0.4,-0.18 0.4,-0.4 z m -1.6,-0.8 c 0,-0.22 -0.18,-0.4 -0.4,-0.4 -0.22,0 -0.4,0.18 -0.4,0.4 0,0.22 0.18,0.4 0.4,0.4 0.22,0 0.4,-0.18 0.4,-0.4 z m -2.4,-1.12756 c -0.66,-0.37339 -2.1,-0.89888 -3.2,-1.16774 l -2,-0.48883 2.4,1.15598 c 2.56379,1.23487 4.80665,1.63586 2.8,0.50059 z M 160.8,183.6 c 0,-0.22 -0.18,-0.4 -0.4,-0.4 -0.22,0 -0.4,0.18 -0.4,0.4 0,0.22 0.18,0.4 0.4,0.4 0.22,0 0.4,-0.18 0.4,-0.4 z m -2.4,-0.8 c 0,-0.22 -0.18,-0.4 -0.4,-0.4 -0.22,0 -0.4,0.18 -0.4,0.4 0,0.22 0.18,0.4 0.4,0.4 0.22,0 0.4,-0.18 0.4,-0.4 z m 313.05934,37.69668 c -4.6733,-1.52879 -8.41372,-3.98813 -11.84945,-7.79108 l -2.94473,-3.25946 0.53174,-2.11859 c 0.71728,-2.8579 1.91747,-4.1724 4.97741,-5.45147 2.68296,-1.1215 4.85251,-1.43623 3.99597,-0.5797 -1.96642,1.96643 7.24183,9.86696 11.42972,9.80651 l 2.8,-0.0404 -2.00518,-0.60995 c -2.75629,-0.83843 -6.99395,-3.0803 -7.56305,-4.00112 -0.25832,-0.41798 1.205,0.17603 3.25183,1.32003 l 3.72151,2.07999 3.41311,0.0743 3.41312,0.0743 1.68433,-1.52399 1.68433,-1.52399 -2e-5,-2.87601 -3e-5,-2.87601 -2.83057,-2.25852 c -2.80589,-2.23883 -6.09508,-3.83662 -13.3087,-6.46499 -2.05662,-0.74936 -5.19684,-2.4183 -6.97827,-3.70876 l -3.23895,-2.34628 -1.62173,-3.17886 -1.62173,-3.17885 v -2.85756 c 0,-4.1236 1.99412,-8.31425 5.81194,-12.21383 l 3.33621,-3.40765 4.25593,-1.59235 4.25594,-1.59235 4.56999,0.0609 4.56999,0.0609 2.8,1.14636 2.8,1.14637 -2.4,-0.44522 c -1.32,-0.24486 -3.12,-0.61001 -4,-0.81144 l -1.6,-0.36622 1.6,0.72953 c 0.88,0.40125 2.81783,1.18663 4.30628,1.7453 3.60579,1.35338 6.99684,4.2951 9.4733,8.21807 l 2.03087,3.21711 -2.14984,1.84921 -2.14983,1.84921 h -3.47637 -3.47637 l -1.67518,-2.83922 -1.67518,-2.83921 -2.77814,-1.16079 C 481.30156,169.32235 479.18838,168.8 478.13358,168.8 h -1.91781 l -2.10788,1.65806 L 472,172.11613 v 2.23405 2.23405 l 1.67819,2.30788 1.67819,2.30789 -2.07819,-2.24461 L 471.2,176.71078 V 173.95539 171.2 h -0.8 -0.8 v 2.73862 2.73862 l 1.91643,2.27754 1.91642,2.27755 8.83122,3.83689 8.83121,3.83689 3.64647,3.20974 3.64646,3.20975 1.21784,3.7372 1.21785,3.7372 -0.33984,-3.42995 -0.33984,-3.42995 -2.04059,-2.67534 -2.04059,-2.67535 -5.98077,-3.07878 c -3.28943,-1.69333 -5.85719,-3.20238 -5.70613,-3.35344 0.67467,-0.67466 9.36288,4.16346 12.61102,7.02259 l 3.58877,3.15897 0.50052,-5.38541 c 0.27529,-2.96197 1.07002,-7.35819 1.76607,-9.76937 l 1.26554,-4.38397 2.8481,-4.20683 2.8481,-4.20684 3.69787,-2.71342 3.69787,-2.71343 4.64274,-1.34893 4.64274,-1.34893 4.15726,0.55848 c 2.28649,0.30717 4.69726,0.86736 5.35726,1.24487 1.54781,0.88532 0.38085,0.87803 -3.49781,-0.0219 l -3.09781,-0.71872 0.69781,0.60295 c 0.38379,0.33162 2.13781,1.01808 3.89781,1.52546 4.71786,1.36009 8.04322,3.66855 10.83374,7.52074 1.36516,1.88456 2.88982,3.42647 3.38812,3.42647 1.18183,0 1.99891,3.05052 2.0984,7.83427 l 0.0797,3.83428 -3.70017,3.95578 -3.70017,3.95578 -2.89983,0.80548 -2.89983,0.80549 -10.53333,0.004 -10.53334,0.004 -0.33537,1 c -0.18446,0.55 -0.0659,2.19852 0.26337,3.66338 0.7586,3.37438 -0.15119,2.53511 -1.44052,-1.32886 L 513.64162,194 l 0.43963,3.2 c 0.24179,1.76 1.05985,4.28 1.8179,5.6 l 1.37827,2.4 5.32719,3.07803 5.32719,3.07804 1.03246,-0.34416 1.03246,-0.34415 -4.98675,-2.23792 c -2.74271,-1.23086 -5.39065,-2.72459 -5.8843,-3.3194 -0.49365,-0.59481 1.50729,0.17201 4.44652,1.70404 l 5.34407,2.78552 h 2.19936 c 1.20965,0 3.89627,-0.5782 5.97027,-1.28488 l 3.77091,-1.28488 4.39932,-4.02073 c 4.81357,-4.39933 5.30388,-4.43518 5.30388,-0.38779 v 2.72839 l -1.68217,3.29733 c -0.9252,1.81353 -3.17899,4.73561 -5.00844,6.49351 l -3.32627,3.19617 -3.61407,1.23144 -3.61407,1.23144 -5.25749,-0.0447 -5.25749,-0.0447 -3.33493,-1.35543 c -1.83421,-0.74549 -4.99225,-2.52362 -7.01787,-3.95141 l -3.68295,-2.59598 -3.05183,-4.82667 -3.05183,-4.82666 -1.21619,3.02278 c -0.66891,1.66252 -2.60593,4.71356 -4.30448,6.78008 l -3.08829,3.75732 -4.25214,2.15138 -4.25214,2.15139 -5.37367,0.28606 -5.37368,0.28606 z m 77.67338,-17.80983 0.50391,-1.31316 -1.21832,1.01111 c -1.38819,1.1521 -1.53267,1.6152 -0.5039,1.6152 0.39292,0 0.94117,-0.59092 1.21831,-1.31315 z m -33.61317,-18.81702 c -0.31618,-0.51159 -0.84058,-2.04159 -1.16532,-3.4 L 513.76378,178 l -0.0819,2.13457 c -0.10007,2.60852 0.62779,4.66543 1.65091,4.66543 h 0.76163 z M 517.6,184.4 c 0,-0.22 -0.18,-0.4 -0.4,-0.4 -0.22,0 -0.4,0.18 -0.4,0.4 0,0.22 0.18,0.4 0.4,0.4 0.22,0 0.4,-0.18 0.4,-0.4 z m 12.2793,-1.71739 6.1207,-0.51739 v -3.32568 -3.32567 l -2.73151,-2.64749 -2.73151,-2.64748 -3.71069,-0.41825 -3.71069,-0.41825 -3.9578,4.10615 -3.9578,4.10614 v 2.26932 c 0,3.67076 1.40556,3.94064 14.6793,2.8186 z m 19.45403,-6.41594 C 549.04,175.97333 548.8,176.21333 548.8,176.8 c 0,0.58667 0.24,0.82667 0.53333,0.53333 0.29334,-0.29333 0.29334,-0.77333 0,-1.06666 z m -0.8,-2.4 C 548.24,173.57333 548,173.81333 548,174.4 c 0,0.58667 0.24,0.82667 0.53333,0.53333 0.29334,-0.29333 0.29334,-0.77333 0,-1.06666 z M 98,219.83703 c -3.122007,-1.08834 -6.451176,-4.16216 -9.30754,-8.59365 L 86.4,207.68675 l 0.01757,-3.64337 0.01757,-3.64338 1.456847,-3.20686 1.456846,-3.20686 3.067402,-2.69322 C 96.388761,187.80514 99.16387,186.65371 110.8,183.6654 l 9.6,-2.4654 0.24801,-2.14688 0.24801,-2.14688 -1.23097,-2.38045 -1.23098,-2.38045 -3.60966,-1.37854 -3.60966,-1.37854 -2.89199,0.4693 c -3.69826,0.60015 -6.526,2.46454 -8.19936,5.40601 l -1.3234,2.32631 -2.636364,0.005 -2.636363,0.005 -2.0568,-2.0568 -2.056801,-2.0568 0.502917,-3.3432 0.502917,-3.3432 2.573147,-2.21095 c 1.415231,-1.21603 4.560842,-2.97386 6.990247,-3.9063 l 4.4171,-1.69534 6.09496,-0.39042 6.09496,-0.39041 2.78245,0.91829 c 1.53034,0.50506 4.46246,1.98373 6.51582,3.28593 l 3.73337,2.36764 2.38922,3.7674 2.38922,3.76741 -0.0947,18.84337 L 134.2107,210 133.6,207.6 l -0.6107,-2.4 -0.0946,2.8471 -0.0947,2.84709 1.24142,1.55291 1.24143,1.5529 -0.53843,-2 -0.53843,-2 3.28354,3.2 c 1.80595,1.76 3.2896,3.65891 3.29701,4.2198 l 0.0135,1.0198 -2.05208,0.7802 C 137.61928,219.64891 134.68354,220 132.22405,220 h -4.47179 l -3.1099,-3.26919 -3.10991,-3.26919 -2.76115,2.10603 c -1.51863,1.15832 -4.29343,2.80155 -6.16622,3.65162 l -3.40508,1.54559 -4.4,-0.0456 c -2.42,-0.0251 -5.48,-0.42208 -6.8,-0.88224 z m 8,-9.43703 -0.49443,-0.8 h 3.05959 3.05959 l 3.58762,-1.88702 3.58763,-1.88702 1.39876,-2.71298 c 1.41203,-2.73873 1.75448,-6.11597 0.93111,-9.18259 l -0.44828,-1.6696 -4.5408,0.69271 c -6.22676,0.94992 -12.03504,2.94075 -13.83706,4.74277 L 100.8,199.2 l -0.0361,3 -0.0361,3 -1.098938,-2.4 -1.098942,-2.4 -0.06498,2.27657 -0.06497,2.27656 1.33616,2.26194 c 1.3119,2.22088 3.64071,3.82374 5.71105,3.93079 l 1.04722,0.0541 z m -3.70204,-2.2 -1.09796,-1.4 1.6,1.17363 c 0.88,0.64549 1.75,1.27549 1.93333,1.4 0.18334,0.1245 -0.0426,0.22637 -0.50204,0.22637 -0.45946,0 -1.32946,-0.63 -1.93333,-1.4 z M 131.81504,169.68436 129.93297,166 l -3.8569,-2.6 c -2.12129,-1.43 -4.23793,-2.6 -4.70364,-2.6 -0.46571,0 0.74498,1.0656 2.69041,2.368 1.94544,1.3024 4.37346,3.61306 5.39561,5.1348 l 1.85844,2.7668 0.94156,5.05845 0.94155,5.05845 0.24856,-3.90889 0.24855,-3.90889 z m -12.08171,-9.41769 c -0.29333,-0.29334 -0.77333,-0.29334 -1.06666,0 -0.29334,0.29333 -0.0533,0.53333 0.53333,0.53333 0.58667,0 0.82667,-0.24 0.53333,-0.53333 z M 268.8,217.99725 l -5.2,-2.76641 -2.95257,-3.26486 c -3.95997,-4.37881 -6.08165,-8.99368 -7.67297,-16.68951 l -1.32603,-6.41279 1.44165,-5.43184 c 0.79291,-2.98751 2.38479,-7.17045 3.53753,-9.29542 l 2.09588,-3.86358 4.60107,-4.25977 4.60107,-4.25978 4.01566,-1.33379 4.01565,-1.33379 h 4.39046 4.39045 l 1.43107,0.83282 1.43108,0.83282 -1.6,0.075 -1.6,0.075 1.91237,0.76508 c 1.0518,0.42079 3.13855,1.34694 4.63723,2.05811 l 2.72486,1.29303 3.50897,4.91738 c 1.92994,2.70456 4.28834,7.00043 5.2409,9.54638 0.95257,2.54595 1.91345,4.44748 2.13531,4.22563 0.49943,-0.49943 -2.0731,-8.53085 -3.17949,-9.92636 -0.44449,-0.56064 -0.6034,-1.22409 -0.35314,-1.47435 0.57559,-0.57558 2.46561,3.12338 3.72678,7.29368 0.53226,1.76 1.1795,3.74 1.43831,4.4 l 0.47058,1.2 0.60936,-3.6 c 0.33515,-1.98 0.63605,-5.50267 0.66866,-7.82815 l 0.0593,-4.22814 -1.34571,-2.17186 c -0.74015,-1.19452 -2.2439,-3.15809 -3.34168,-4.36351 l -1.99597,-2.19165 0.60963,-0.60835 c 0.33529,-0.33458 4.53793,-0.60834 9.33919,-0.60834 h 8.72957 l -0.0607,1.6 -0.0607,1.6 -0.4035,-1 C 318.992,160.61496 316,160.44252 316,161.6 c 0,0.44 0.28768,0.8 0.63929,0.8 0.35161,0 1.12637,1.34701 1.7217,2.99336 l 1.08242,2.99337 0.62207,-1.59337 c 0.34213,-0.87635 0.64737,-1.25502 0.67829,-0.84149 0.0309,0.41353 1.20435,-0.42245 2.6076,-1.85773 2.95125,-3.01861 5.54626,-4.45564 9.35696,-5.18155 l 2.70833,-0.51592 3.22911,0.86951 3.22911,0.86951 -1.13744,0.7199 -1.13744,0.71991 1.3977,0.0122 c 0.76873,0.007 2.77834,1.25959 4.46581,2.78411 l 3.06811,2.77185 1.49395,3.313 1.49396,3.31301 0.57623,-1.48486 0.57624,-1.48486 -0.30877,4.4 -0.30876,4.4 0.69942,-2.4 0.69943,-2.4 -0.35464,14.8 c -0.19504,8.14 -0.53689,16.42 -0.75966,18.4 l -0.40503,3.6 0.90036,-1.2 0.90036,-1.2 -0.41489,2.43768 -0.41489,2.43767 0.79994,1.16233 0.79994,1.16232 -0.53515,-2 -0.53514,-2 1.28094,1.6 1.28094,1.6 2.05218,-2.30319 2.05219,-2.30318 -0.61242,-15.29682 C 359.15151,187.28357 358.90619,179.68 358.94318,178.8 c 0.037,-0.88 0.12214,-8.65438 0.18923,-17.2764 l 0.12197,-15.6764 -0.88208,-2.32005 c -0.48514,-1.27603 -1.7757,-3.49165 -2.8679,-4.9236 L 353.51857,136 l 24.64072,-0.009 24.64071,-0.009 3.67654,-1.11592 3.67655,-1.11592 -1.87393,4.63938 c -1.03066,2.55166 -2.29965,7.37772 -2.81998,10.72458 -1.03694,6.66989 -1.60156,7.27743 -3.44692,3.70892 -0.67585,-1.30696 -1.92143,-2.74696 -2.76795,-3.2 L 397.70519,148.8 H 385.25259 372.8 v 10.64 10.64 l 0.94543,0.94543 0.94542,0.94542 9.65458,-0.48959 9.65457,-0.4896 2.6,-1.93654 2.6,-1.93655 -0.13448,6.64072 -0.13448,6.64071 -0.31677,-3.04958 -0.31677,-3.04959 -0.94875,0.31128 c -0.52181,0.1712 -1.06491,1.29679 -1.20688,2.50129 l -0.25812,2.19002 1.44422,2.14829 c 0.79432,1.18156 1.53611,3.13829 1.64842,4.34829 l 0.20419,2.2 h -0.77185 c -0.42451,0 -1.368,-0.90985 -2.09663,-2.02188 l -1.32479,-2.02189 -10.89366,0.22189 L 373.2,184.4 l -0.22241,10.48345 -0.22241,10.48344 1.02241,0.83702 c 1.16745,0.95575 6.94413,1.36414 16.21462,1.1463 l 6.39221,-0.15021 5.01799,-5.32313 c 5.47282,-5.8056 6.30134,-6.02492 5.12877,-1.35762 -0.42569,1.69441 -1.00586,5.57406 -1.28927,8.62144 l -0.5153,5.54069 2.2367,1.7876 2.23669,1.7876 -0.66903,0.67171 -0.66903,0.67171 -31.33097,-0.0703 -31.33097,-0.0703 -2.07212,-0.8613 -2.07213,-0.8613 -0.55818,-20.6551 -0.55818,-20.65509 -1.17723,-1.79668 c -0.64748,-0.98817 -2.28649,-2.37029 -3.64224,-3.07138 l -2.46502,-1.27471 -3.19215,0.53931 -3.19215,0.53931 -2.7353,2.40162 -2.7353,2.40163 -0.16906,16.51712 L 320.46188,209.2 320,196.4 l -0.46188,-12.8 -0.0893,13.6 c -0.0491,7.48 0.17667,14.5 0.50176,15.6 l 0.59108,2 0.83393,-0.16825 c 0.45865,-0.0925 1.47458,0.53967 2.2576,1.40491 l 1.42369,1.57315 -0.59278,0.59509 c -0.32603,0.32731 -5.51382,0.71275 -11.52843,0.85654 L 302,219.32288 l 2.10225,-2.26144 c 1.15624,-1.24379 2.50624,-3.04777 3,-4.00885 l 0.89775,-1.7474 -0.0868,-5.4526 C 307.86542,202.85367 307.57698,198.24 307.27221,195.6 l -0.55414,-4.8 -1.07359,5.0532 -1.07358,5.05321 -3.09364,4.78645 c -3.95481,6.11887 -8.81431,10.72939 -13.87726,13.16625 l -4,1.92526 -4.8,-0.0104 -4.8,-0.0104 z m 16.16889,-10.50888 2.16889,-1.09728 2.23111,-3.79555 L 291.6,198.8 v -8.8 -8.8 l -1.80237,-3.37277 -1.80236,-3.37276 -2.98334,-2.02724 -2.98335,-2.02723 -3.21429,0.0283 c -3.56824,0.0315 -5.10056,0.75639 -9.67184,4.57566 l -3.11674,2.60402 0.11383,8.99598 0.11383,8.99599 -0.63203,-2.4 -0.63204,-2.4 -0.0947,3.24292 -0.0947,3.24293 2.06966,4.15327 2.06967,4.15328 3.18509,1.89936 3.18509,1.89936 3.74525,-0.40274 c 2.05988,-0.2215 4.72124,-0.8965 5.91413,-1.50001 z m -12.38318,-0.71721 C 270.94357,205.6553 269.6,204.55078 269.6,204.31668 c 0,-0.2341 0.99,0.26398 2.2,1.10685 1.21,0.84286 2.92,1.93643 3.8,2.43014 0.88,0.49372 1.23357,0.90862 0.78571,0.922 -0.44786,0.0134 -2.15786,-0.88865 -3.8,-2.00451 z M 268,202 c 0,-0.22 0.18,-0.4 0.4,-0.4 0.22,0 0.4,0.18 0.4,0.4 0,0.22 -0.18,0.4 -0.4,0.4 -0.22,0 -0.4,-0.18 -0.4,-0.4 z m -1.6,-4.8 c 0,-0.22 0.18,-0.4 0.4,-0.4 0.22,0 0.4,0.18 0.4,0.4 0,0.22 -0.18,0.4 -0.4,0.4 -0.22,0 -0.4,-0.18 -0.4,-0.4 z m 110.4,11.01493 c -1.54,-0.18095 -3.16,-0.67993 -3.6,-1.10883 l -0.8,-0.77983 -0.44319,-11.36313 -0.4432,-11.36314 -0.1568,11.64 -0.15681,11.64 0.96,0.96 0.96,0.96 3.24,-0.12803 3.24,-0.12803 z M 265.6,188.4 c 0,-0.22 -0.18,-0.4 -0.4,-0.4 -0.22,0 -0.4,0.18 -0.4,0.4 0,0.22 0.18,0.4 0.4,0.4 0.22,0 0.4,-0.18 0.4,-0.4 z M 372.82815,171.25259 372,169.70519 371.8839,159.45259 371.7678,149.2 l -0.65679,10.30324 -0.6568,10.30324 0.80104,1.49676 c 0.44058,0.82322 1.16104,1.49676 1.60104,1.49676 h 0.8 z m -89.04482,-10.93592 c -0.26583,-0.26584 -0.95583,-0.29426 -1.53333,-0.0632 l -1.05,0.42017 1.53333,0.0632 c 0.84334,0.0347 1.31584,-0.15434 1.05,-0.42017 z m 55.2,0 c -0.26583,-0.26584 -0.95583,-0.29426 -1.53333,-0.0632 l -1.05,0.42017 1.53333,0.0632 c 0.84334,0.0347 1.31584,-0.15434 1.05,-0.42017 z m 77.82052,58.32077 -4.39616,-2.31708 -2.28577,-3.40343 -2.28577,-3.40344 -0.40808,-3.04242 -0.40807,-3.04242 1.31058,-4.50824 1.31058,-4.50823 2.79489,-2.79489 c 3.77227,-3.77228 7.97985,-5.67359 16.77026,-7.5781 4.06369,-0.88043 8.33468,-1.96052 9.4911,-2.40019 L 440.8,180.8396 v -2.31191 -2.31192 l -1.73432,-2.20483 C 436.89018,171.24524 433.0315,169.6 428.72043,169.6 h -3.33096 l -3.6,3.6 -3.6,3.6 h -2.11673 c -1.1642,0 -2.91683,-0.56041 -3.89474,-1.24536 l -1.778,-1.24537 v -3.2785 -3.27851 l 3.21393,-3.05733 3.21392,-3.05734 5.61295,-1.70488 5.61294,-1.70488 5.94738,0.30033 5.94737,0.30033 0.97179,0.97179 0.9718,0.9718 -2.74076,-0.78604 c -1.50742,-0.43232 -3.46313,-0.76174 -4.34604,-0.73205 l -1.60528,0.054 3.86214,1.03811 c 6.92646,1.86178 12.3143,6.6406 14.54416,12.90016 l 1.12347,3.15374 0.0351,-1.74792 c 0.0193,-0.96136 -0.34754,-2.76136 -0.81522,-4 l -0.85033,-2.25208 0.74115,0.8 c 0.40763,0.44 1.15027,2.02372 1.65033,3.51938 l 0.90918,2.71938 v 16.64949 16.64949 l 3.55789,4.36812 3.55788,4.36813 -1.25601,1.0424 -1.25601,1.0424 -5.37318,0.30361 -5.37318,0.30361 -2.89563,-3.06921 -2.89563,-3.06922 -5.71088,3.08458 -5.71088,3.08458 -4.92218,0.37889 -4.92219,0.37889 z m 6.83153,-9.80051 -2.26397,-2.36308 -1.09623,-3.83692 -1.09623,-3.83693 0.30402,3.72693 0.30402,3.72693 1.76098,2.47307 1.76098,2.47307 h 1.2952 1.2952 z m 30.49795,1.02974 C 453.84,209.57333 453.6,209.81333 453.6,210.4 c 0,0.58667 0.24,0.82667 0.53333,0.53333 0.29334,-0.29333 0.29334,-0.77333 0,-1.06666 z m -18.48069,-1.94578 c 1.34894,-0.80808 3.11288,-2.1988 3.91985,-3.09049 l 1.46722,-1.62126 0.38535,-6.00457 0.38535,-6.00457 h -0.81963 c -5.67936,0 -16.44701,3.58916 -18.90028,6.3 l -1.50572,1.6638 0.48672,2.99934 c 1.21794,7.50529 7.5138,9.99137 14.58114,5.75775 z m 17.68069,-1.25422 C 453.04,206.37333 452.8,206.61333 452.8,207.2 c 0,0.58667 0.24,0.82667 0.53333,0.53333 0.29334,-0.29333 0.29334,-0.77333 0,-1.06666 z M 39,219.50536 c -1.96078,-0.59199 -1.798645,-0.9906 1.6,-3.9336 l 3,-2.59781 -0.03193,-15.08698 L 43.536139,182.8 42.639922,181.18685 41.743706,179.5737 42.843505,177.58685 43.943303,175.6 43.971652,161.37431 44,147.14861 42.759455,144.17431 C 42.077155,142.53844 40.386535,140.03 39.002522,138.6 L 36.486133,136 47.243067,135.89259 C 53.15938,135.83351 64.3,135.85059 72,135.93054 l 14,0.14536 5,-1.56461 5,-1.56461 v 1.07944 c 0,0.5937 -0.329372,1.28302 -0.731937,1.53181 -0.402565,0.2488 -1.842565,3.36081 -3.2,6.91557 L 89.6,148.9367 v 2.68444 c 0,1.47644 -0.360674,2.90734 -0.801498,3.17979 l -0.801498,0.49535 -0.715162,-1.88102 c -0.393338,-1.03456 -1.34047,-2.39998 -2.104735,-3.03426 L 83.787532,149.22776 72.893766,148.94214 62,148.65652 l -2.2,0.85194 -2.2,0.85194 0.0088,7.8198 c 0.0048,4.30089 0.230353,9.15998 0.501134,10.79799 l 0.49233,2.97819 1.577092,0.50055 c 0.8674,0.2753 4.780323,0.24702 8.695385,-0.0628 l 7.118293,-0.56339 3.003481,-2.39201 3.00348,-2.39202 0.529915,3.87667 c 0.291454,2.13217 0.561454,7.56667 0.6,12.07667 L 83.2,191.2 h -0.705049 c -0.387777,0 -1.674386,-1.27087 -2.859132,-2.82415 L 77.481736,185.5517 67.740868,185.77585 58,186 l -0.219701,12.97589 -0.219702,12.97589 2.831407,3.13403 2.831407,3.13402 -1.411706,0.55001 C 60.04113,219.45966 40.893526,220.07704 39,219.50536 Z M 56.761061,200.8 l -0.43894,-13.2 -0.16106,12.13457 c -0.130193,9.80895 0.272867,16.04113 0.93777,14.49993 0.05564,-0.12897 -0.09635,-6.1745 -0.33777,-13.4345 z M 81.333333,179.46667 C 81.04,179.17333 80.8,179.41333 80.8,180 c 0,0.58667 0.24,0.82667 0.533333,0.53333 0.293334,-0.29333 0.293334,-0.77333 0,-1.06666 z M 56.813474,162.4 l -0.430282,-10.8 -0.451375,9.6 -0.451375,9.6 0.724595,1.46852 c 1.062545,2.15343 1.077644,1.90852 0.608437,-9.86852 z m 172.961036,56.83288 c -13.76568,-0.69496 -13.81544,-0.71144 -11.40364,-3.77755 l 1.75327,-2.22892 -0.5194,-18.01321 -0.5194,-18.0132 -0.85535,-2.23773 -0.85536,-2.23772 -2.24759,-1.16228 c -4.73545,-2.44879 -9.82097,-1.33728 -14.54175,3.17831 l -3.01472,2.88368 0.21472,18.56476 0.21471,18.56476 1.6,0.82333 c 0.88,0.45284 2.13637,1.16786 2.79193,1.58895 l 1.19194,0.76561 -1.99194,0.55442 c -1.09556,0.30493 -6.08466,0.59031 -11.08688,0.63417 l -9.09495,0.0797 2.29495,-3 2.29495,-3 -0.25863,-34.4 -0.25862,-34.4 -0.77149,-2.50326 c -0.42432,-1.3768 -1.50143,-3.16385 -2.39357,-3.97123 l -1.62207,-1.46796 1.45219,-0.57255 c 0.7987,-0.3149 5.23219,-0.55609 9.85219,-0.53597 4.62,0.0201 7.77,0.20121 7,0.40243 l -1.4,0.36586 0.0928,15.34134 c 0.051,8.43774 0.25744,14.71134 0.45866,13.94134 0.20122,-0.77 0.72348,-1.4 1.16058,-1.4 0.43709,0 1.9407,-0.85028 3.34134,-1.88952 4.85973,-3.60577 10.61309,-4.57158 16.87544,-2.83285 l 3.12882,0.86871 -0.94408,0.58348 -0.94409,0.58347 2.02905,1.08592 c 2.96753,1.58817 6.02763,5.97643 7.74183,11.10195 l 1.50461,4.49884 -0.3341,-3.6 c -0.18375,-1.98 -0.58105,-4.32 -0.88288,-5.2 l -0.54879,-1.6 1.06041,1.6 1.0604,1.6 0.4,20.97319 0.4,20.97318 1.38095,1.3792 1.38095,1.37919 0.61905,-0.61794 0.61905,-0.61795 0.23252,-24.17488 0.23252,-24.17487 -2.03252,-2.99509 c -1.11789,-1.6473 -2.03252,-3.17169 -2.03252,-3.38754 0,-0.21586 3.69,-0.28987 8.2,-0.16448 l 8.2,0.22799 0.0376,10.8 0.0376,10.8 -0.26082,-10.6 -0.26083,-10.6 -2.04203,0 h -2.04203 l 1.66525,2.69443 1.66525,2.69442 v 6.79392 c 0,3.73665 0.25846,8.55416 0.57435,10.70557 l 0.57435,3.91166 0.50704,-2.8 0.50704,-2.8 -0.0814,16.12659 c -0.0448,8.86962 -0.21748,15.99353 -0.38381,15.83091 -0.16633,-0.16262 -0.56913,-2.37958 -0.89511,-4.92659 l -0.59268,-4.63091 -0.1049,3.68062 C 248.79072,211.28688 250.09912,216 251.32547,216 h 0.76896 l -0.56141,-0.90838 c -0.30878,-0.49961 0.57245,-0.0701 1.95828,0.95451 l 2.51968,1.86289 -0.65925,0.65925 c -1.04368,1.04368 -12.28352,1.33574 -25.57722,0.66461 z m 2.75882,-6.16621 C 232.24,212.77333 232,213.01333 232,213.6 c 0,0.58667 0.24,0.82667 0.53333,0.53333 0.29334,-0.29333 0.29334,-0.77333 0,-1.06666 z m -0.76752,-7.65734 -0.34792,-1.80933 -0.0161,3.2 c -0.009,1.76 0.14768,2.5742 0.34791,1.80933 0.20024,-0.76487 0.2075,-2.20487 0.0161,-3.2 z M 220,160.4 c 0,-0.22 -0.18,-0.4 -0.4,-0.4 -0.22,0 -0.4,0.18 -0.4,0.4 0,0.22 0.18,0.4 0.4,0.4 0.22,0 0.4,-0.18 0.4,-0.4 z m -20.8,54.4 c 0,-0.22 0.18,-0.4 0.4,-0.4 0.22,0 0.4,0.18 0.4,0.4 0,0.22 -0.18,0.4 -0.4,0.4 -0.22,0 -0.4,-0.18 -0.4,-0.4 z m 206.5856,-2 V 210 l 0.36586,1.4 c 0.20122,0.77 0.20122,2.03 0,2.8 l -0.36586,1.4 z M 320.8,213.6 c 0,-0.58667 0.24,-0.82667 0.53333,-0.53333 0.29334,0.29333 0.29334,0.77333 0,1.06666 C 321.04,214.42667 320.8,214.18667 320.8,213.6 Z M 150.4,206 c 0,-0.22 0.18,-0.4 0.4,-0.4 0.22,0 0.4,0.18 0.4,0.4 0,0.22 -0.18,0.4 -0.4,0.4 -0.22,0 -0.4,-0.18 -0.4,-0.4 z m -1.6,-2.4 c 0,-0.22 0.18,-0.4 0.4,-0.4 0.22,0 0.4,0.18 0.4,0.4 0,0.22 -0.18,0.4 -0.4,0.4 -0.22,0 -0.4,-0.18 -0.4,-0.4 z m -1.27639,-2.12361 -0.57082,-0.9236 0.9236,0.57082 c 0.92221,0.56995 1.23814,1.27639 0.57082,1.27639 -0.19403,0 -0.60965,-0.41562 -0.9236,-0.92361 z M 516.8,202 c 0,-0.22 0.18,-0.4 0.4,-0.4 0.22,0 0.4,0.18 0.4,0.4 0,0.22 -0.18,0.4 -0.4,0.4 -0.22,0 -0.4,-0.18 -0.4,-0.4 z m -318.24404,-5.6 0.0296,-2.4 0.36879,1.41523 c 0.20284,0.77837 0.1895,1.85837 -0.0296,2.4 -0.21914,0.54162 -0.38509,-0.0952 -0.36879,-1.41523 z m 0.10655,-8.8 0.006,-5.6 0.31488,3.01784 c 0.17318,1.65982 0.17028,4.17982 -0.006,5.6 -0.17673,1.42019 -0.31843,0.0622 -0.31488,-3.01784 z m 283.20416,-4.13333 c 0.29333,-0.29334 0.77333,-0.29334 1.06666,0 C 483.22667,183.76 482.98667,184 482.4,184 c -0.58667,0 -0.82667,-0.24 -0.53333,-0.53333 z M 477.6,182 c -1.1,-0.62882 -1.64,-1.1433 -1.2,-1.1433 0.44,0 1.7,0.51448 2.8,1.1433 1.1,0.62882 1.64,1.1433 1.2,1.1433 -0.44,0 -1.7,-0.51448 -2.8,-1.1433 z M 299.2,170 c 0,-0.22 0.18,-0.4 0.4,-0.4 0.22,0 0.4,0.18 0.4,0.4 0,0.22 -0.18,0.4 -0.4,0.4 -0.22,0 -0.4,-0.18 -0.4,-0.4 z M 500,169.6 c 0,-0.58667 0.24,-0.82667 0.53333,-0.53333 0.29334,0.29333 0.29334,0.77333 0,1.06666 C 500.24,170.42667 500,170.18667 500,169.6 Z m 46.4,-0.4 c 0,-0.22 0.18,-0.4 0.4,-0.4 0.22,0 0.4,0.18 0.4,0.4 0,0.22 -0.18,0.4 -0.4,0.4 -0.22,0 -0.4,-0.18 -0.4,-0.4 z m -250.07639,-2.92361 -0.57082,-0.9236 0.9236,0.57082 c 0.50799,0.31395 0.92361,0.72957 0.92361,0.9236 0,0.66732 -0.70644,0.35139 -1.27639,-0.57082 z m 152.8,0 -0.57082,-0.9236 0.9236,0.57082 c 0.92221,0.56995 1.23814,1.27639 0.57082,1.27639 -0.19403,0 -0.60965,-0.41562 -0.9236,-0.92361 z M 226,163.46439 c -1.76,-1.57796 -2.48,-2.49603 -1.6,-2.04016 1.48276,0.76812 5.90119,5.0172 5.13945,4.94247 -0.1867,-0.0183 -1.77945,-1.32436 -3.53945,-2.90231 z M 294.4,164.4 c 0,-0.22 0.18,-0.4 0.4,-0.4 0.22,0 0.4,0.18 0.4,0.4 0,0.22 -0.18,0.4 -0.4,0.4 -0.22,0 -0.4,-0.18 -0.4,-0.4 z m 152.8,0 c 0,-0.22 0.18,-0.4 0.4,-0.4 0.22,0 0.4,0.18 0.4,0.4 0,0.22 -0.18,0.4 -0.4,0.4 -0.22,0 -0.4,-0.18 -0.4,-0.4 z m 94.72361,-0.52361 -0.57082,-0.9236 0.9236,0.57082 c 0.92221,0.56995 1.23814,1.27639 0.57082,1.27639 -0.19403,0 -0.60965,-0.41562 -0.9236,-0.92361 z m -249.6,-0.8 -0.57082,-0.9236 0.9236,0.57082 c 0.92221,0.56995 1.23814,1.27639 0.57082,1.27639 -0.19403,0 -0.60965,-0.41562 -0.9236,-0.92361 z m 257.85101,-1.68036 -2.22538,-1.79603 -0.40229,-2.8 -0.4023,-2.8 1.03933,-1.97599 c 0.57163,-1.08679 2.25732,-2.79679 3.74598,-3.8 L 554.63661,146.4 h 3.1199 3.11989 l 1.94383,2.09742 1.94382,2.09743 0.48878,2.60539 0.48877,2.60539 -1.28434,2.48364 -1.28434,2.48365 -2.34673,1.21354 -2.34673,1.21354 -3.03973,-0.004 -3.03973,-0.004 z m 2.85442,-5.008 -0.45536,-4.41197 1.43715,-1.58803 1.43715,-1.58803 h 1.77805 1.77806 l 1.09508,1.31949 1.09507,1.31949 0.003,3.87803 c 0.003,4.35928 0.66901,4.96546 1.82176,1.65869 l 0.77539,-2.22431 -0.89713,-2.7487 L 562,149.254 l -2.06693,-1.15646 -2.06693,-1.15646 -3.13307,1.52946 L 551.6,150 l -0.24272,3.77277 -0.24272,3.77277 0.87087,1.62723 c 1.34318,2.50976 1.53674,1.99326 1.04361,-2.78474 z M 559.04,159.04 560,158.08 v -2.55137 -2.55138 l -1.50831,-1.86268 -1.50831,-1.86268 -1.29169,1.07201 -1.29169,1.07201 v 3.34205 3.34204 l 0.96,0.96 c 0.528,0.528 1.356,0.96 1.84,0.96 0.484,0 1.312,-0.432 1.84,-0.96 z m -3.51104,-3.43821 c -0.6349,-2.52967 0.0651,-4.40179 1.64593,-4.40179 H 558.4 v 3.2 3.2 h -1.18476 -1.18476 z M 288.8,161.6 c -0.66,-0.42652 -0.84,-0.7755 -0.4,-0.7755 0.44,0 1.34,0.34898 2,0.7755 0.66,0.42652 0.84,0.7755 0.4,0.7755 -0.44,0 -1.34,-0.34898 -2,-0.7755 z M 444,162 c 0,-0.22 0.18,-0.4 0.4,-0.4 0.22,0 0.4,0.18 0.4,0.4 0,0.22 -0.18,0.4 -0.4,0.4 -0.22,0 -0.4,-0.18 -0.4,-0.4 z m 48.8,0 c 0,-0.22 0.18,-0.4 0.4,-0.4 0.22,0 0.4,0.18 0.4,0.4 0,0.22 -0.18,0.4 -0.4,0.4 -0.22,0 -0.4,-0.18 -0.4,-0.4 z m 46.4,0 c 0,-0.22 0.18,-0.4 0.4,-0.4 0.22,0 0.4,0.18 0.4,0.4 0,0.22 -0.18,0.4 -0.4,0.4 -0.22,0 -0.4,-0.18 -0.4,-0.4 z m -48,-0.8 c 0,-0.22 0.18,-0.4 0.4,-0.4 0.22,0 0.4,0.18 0.4,0.4 0,0.22 -0.18,0.4 -0.4,0.4 -0.22,0 -0.4,-0.18 -0.4,-0.4 z m 46.4,0 c 0,-0.22 0.18,-0.4 0.4,-0.4 0.22,0 0.4,0.18 0.4,0.4 0,0.22 -0.18,0.4 -0.4,0.4 -0.22,0 -0.4,-0.18 -0.4,-0.4 z M 198.69597,149.6 v -8.4 l 0.29382,4.2 c 0.16161,2.31 0.16161,6.09 0,8.4 l -0.29382,4.2 z m 39.64249,0.86154 L 236,148.12308 v -2.56711 -2.56712 l 1.6715,-2.70454 c 2.66646,-4.31442 6.75259,-5.57698 9.9756,-3.08235 l 1.5529,1.20197 -1.4,-0.48756 c -1.77812,-0.61923 -1.80646,-0.75777 0.96138,4.69971 l 2.34111,4.61609 0.82443,-1.41609 c 1.08708,-1.86724 1.08176,-1.05347 -0.0136,2.08885 l -0.88674,2.54369 -2.27354,1.17569 c -1.25044,0.64663 -3.5791,1.17569 -5.1748,1.17569 h -2.90127 z M 250.4,140.4 c 0,-0.22 0.18,-0.4 0.4,-0.4 0.22,0 0.4,0.18 0.4,0.4 0,0.22 -0.18,0.4 -0.4,0.4 -0.22,0 -0.4,-0.18 -0.4,-0.4 z m -73.6474,-24.16265 c -1.41359,-1.18945 -3.06604,-3.34945 -3.67212,-4.8 l -1.10195,-2.63735 1.11135,-2.65983 1.11135,-2.65984 2.98097,-2.45717 c 3.20254,-2.6398 5.17921,-3.48392 24.8178,-10.598247 7.04,-2.550328 20.18,-7.348713 29.2,-10.663078 9.02,-3.314365 23.42,-8.604435 32,-11.755711 8.58,-3.151275 17.76,-6.469587 20.4,-7.374026 2.64,-0.904439 5.20298,-1.961717 5.69552,-2.349508 l 0.89551,-0.705073 0.38773,-6.041587 0.38772,-6.041586 1.57324,-2.147172 1.57323,-2.147172 4.98888,-2.667959 4.98887,-2.667959 1.26038,-2.643042 1.26038,-2.643042 -0.53764,-2.865874 -0.53764,-2.865874 -2.66255,-2.823125 -2.66255,-2.823125 -3.52754,0 -3.52753,0 -1.97801,1.363287 c -1.0879,0.749808 -2.41655,1.919808 -2.95256,2.6 L 287.25089,24.4 l -0.0255,3.67601 -0.0254,3.67601 -1.45249,1.314489 c -0.79888,0.722969 -2.59342,1.542673 -3.98789,1.821566 l -2.53538,0.507078 -2.41212,-2.582181 -2.41212,-2.58218 0.004,-2.515396 c 0.002,-1.383468 0.39479,-3.921205 0.87185,-5.639417 l 0.86738,-3.124021 4.15295,-4.152947 4.15295,-4.152947 L 289.0548,8.9230322 293.66002,7.2 l 4.56999,0.056228 4.56999,0.056228 -1.6,0.6305432 -1.6,0.6305431 2.55537,0.5669898 c 1.40545,0.3118444 4.15717,1.7900575 6.11493,3.2849185 l 3.55956,2.717929 1.63032,3.42831 c 0.89668,1.88557 1.87975,5.22831 2.1846,7.42831 0.30485,2.2 0.85854,4.54 1.23042,5.2 l 0.67615,1.2 0.11712,-3.2 0.11713,-3.2 0.38395,1.493932 c 0.21117,0.821663 0.15741,3.004568 -0.11946,4.850899 l -0.50341,3.356967 -2.17334,2.531851 c -1.19534,1.392518 -3.03564,3.649701 -4.08956,5.015962 l -1.91622,2.484111 -3.48378,1.692552 L 302.4,49.118825 302.27985,53.159413 302.15969,57.2 301.67985,53.6 301.2,50 l -0.6,1.46543 c -0.84214,2.05684 -0.74727,4.136058 0.29289,6.418966 l 0.89289,1.959682 3.70711,0.964539 c 4.45366,1.158783 18.00939,5.811325 23.18728,7.958241 4.63834,1.923208 26.27719,10.046548 38.51983,14.460552 5.06,1.824351 9.56,3.607777 10,3.96317 0.44,0.355393 2.6,1.180627 4.8,1.833853 19.56759,5.810024 34.03707,11.868017 35.90681,15.033237 l 1.29319,2.1892 0.0122,3.07656 0.0122,3.07657 0.7755,-1.2 0.7755,-1.2 -0.0132,1.2 c -0.0179,1.62689 -1.87639,3.96769 -4.54981,5.73054 l -2.2125,1.45892 -117.33862,0.005 -117.33862,0.005 z m 6.19389,-9.98735 -0.42017,-1.05 -0.0632,1.53333 c -0.0347,0.84334 0.15434,1.31584 0.42017,1.05 0.26584,-0.26583 0.29426,-0.95583 0.0632,-1.53333 z M 321,107.43541 c -0.99,-0.19068 -2.61,-0.19068 -3.6,0 l -1.8,0.3467 h 3.6 3.6 z m 53.2,-0.0234 c -2.09,-0.1648 -5.51,-0.1648 -7.6,0 l -3.8,0.29963 h 7.6 7.6 z m 23.2502,-1.18512 1.8502,-0.1749 -1.44458,-1.0563 c -0.79451,-0.58097 -5.2271,-2.26675 -9.8502,-3.74619 C 383.38253,99.770027 376.18,97.293888 372,95.746931 364.25403,92.880262 336.68988,82.735086 310.84861,73.239743 l -14.35139,-5.2734 -7.24861,2.325836 C 285.26188,71.57139 275.52,75.052746 267.6,78.028528 c -17.96029,6.748221 -38.31397,14.200625 -56,20.504137 -11.70484,4.171745 -19.59984,7.427855 -19.60006,8.083595 -8e-5,0.23213 202.94442,-0.15253 205.45026,-0.38941 z M 286.17406,25.811 285.83973,23.6 l -0.0109,4 c -0.006,2.2 0.14445,3.19495 0.33433,2.211 0.18989,-0.98395 0.19481,-2.78395 0.0109,-4 z m 134.28308,81.73186 c -0.29425,-1.17241 -0.38072,-2.28594 -0.19215,-2.47452 0.18857,-0.18857 0.58361,0.61639 0.87787,1.7888 0.29425,1.17241 0.38072,2.28594 0.19215,2.47452 -0.18857,0.18857 -0.58361,-0.61639 -0.87787,-1.7888 z M 418.4,102.8 c 0,-0.22 0.18,-0.4 0.4,-0.4 0.22,0 0.4,0.18 0.4,0.4 0,0.22 -0.18,0.4 -0.4,0.4 -0.22,0 -0.4,-0.18 -0.4,-0.4 z m -8.8,-5.6 c 0,-0.22 0.18,-0.4 0.4,-0.4 0.22,0 0.4,0.18 0.4,0.4 0,0.22 -0.18,0.4 -0.4,0.4 -0.22,0 -0.4,-0.18 -0.4,-0.4 z m -4.8,-1.6 c 0,-0.22 0.18,-0.4 0.4,-0.4 0.22,0 0.4,0.18 0.4,0.4 0,0.22 -0.18,0.4 -0.4,0.4 -0.22,0 -0.4,-0.18 -0.4,-0.4 z m -2.4,-0.8 c 0,-0.22 0.18,-0.4 0.4,-0.4 0.22,0 0.4,0.18 0.4,0.4 0,0.22 -0.18,0.4 -0.4,0.4 -0.22,0 -0.4,-0.18 -0.4,-0.4 z m -4,-1.6 c 0,-0.22 0.18,-0.4 0.4,-0.4 0.22,0 0.4,0.18 0.4,0.4 0,0.22 -0.18,0.4 -0.4,0.4 -0.22,0 -0.4,-0.18 -0.4,-0.4 z m -7.2,-2.4 c 0,-0.22 0.18,-0.4 0.4,-0.4 0.22,0 0.4,0.18 0.4,0.4 0,0.22 -0.18,0.4 -0.4,0.4 -0.22,0 -0.4,-0.18 -0.4,-0.4 z M 388.8,90 c 0,-0.22 0.18,-0.4 0.4,-0.4 0.22,0 0.4,0.18 0.4,0.4 0,0.22 -0.18,0.4 -0.4,0.4 -0.22,0 -0.4,-0.18 -0.4,-0.4 z m -12.53333,-4.933333 c 0.29333,-0.293334 0.77333,-0.293334 1.06666,0 C 377.62667,85.36 377.38667,85.6 376.8,85.6 c -0.58667,0 -0.82667,-0.24 -0.53333,-0.533333 z m -2.4,-0.8 c 0.29333,-0.293334 0.77333,-0.293334 1.06666,0 C 375.22667,84.56 374.98667,84.8 374.4,84.8 c -0.58667,0 -0.82667,-0.24 -0.53333,-0.533333 z m -4,-1.6 c 0.29333,-0.293334 0.77333,-0.293334 1.06666,0 C 371.22667,82.96 370.98667,83.2 370.4,83.2 c -0.58667,0 -0.82667,-0.24 -0.53333,-0.533333 z M 368,82 c 0,-0.22 0.18,-0.4 0.4,-0.4 0.22,0 0.4,0.18 0.4,0.4 0,0.22 -0.18,0.4 -0.4,0.4 -0.22,0 -0.4,-0.18 -0.4,-0.4 z m -11.2,-4 c 0,-0.22 0.18,-0.4 0.4,-0.4 0.22,0 0.4,0.18 0.4,0.4 0,0.22 -0.18,0.4 -0.4,0.4 -0.22,0 -0.4,-0.18 -0.4,-0.4 z m -6.93333,-2.533333 c 0.29333,-0.293334 0.77333,-0.293334 1.06666,0 C 351.22667,75.76 350.98667,76 350.4,76 c -0.58667,0 -0.82667,-0.24 -0.53333,-0.533333 z M 344,73.2 c 0,-0.22 0.18,-0.4 0.4,-0.4 0.22,0 0.4,0.18 0.4,0.4 0,0.22 -0.18,0.4 -0.4,0.4 -0.22,0 -0.4,-0.18 -0.4,-0.4 z m -4.8,-1.6 c 0,-0.22 0.18,-0.4 0.4,-0.4 0.22,0 0.4,0.18 0.4,0.4 0,0.22 -0.18,0.4 -0.4,0.4 -0.22,0 -0.4,-0.18 -0.4,-0.4 z m -6.4,-2.4 c 0,-0.22 0.18,-0.4 0.4,-0.4 0.22,0 0.4,0.18 0.4,0.4 0,0.22 -0.18,0.4 -0.4,0.4 -0.22,0 -0.4,-0.18 -0.4,-0.4 z m -18.93333,-7.333333 c 0.29333,-0.293334 0.77333,-0.293334 1.06666,0 C 315.22667,62.16 314.98667,62.4 314.4,62.4 c -0.58667,0 -0.82667,-0.24 -0.53333,-0.533333 z M 310,60.8 l -1.6,-0.687544 1.2,-0.04398 c 0.66,-0.02419 1.74,0.304997 2.4,0.731522 1.46237,0.945058 0.19927,0.945058 -2,0 z m -3.33333,-1.333333 c 0.29333,-0.293334 0.77333,-0.293334 1.06666,0 C 308.02667,59.76 307.78667,60 307.2,60 c -0.58667,0 -0.82667,-0.24 -0.53333,-0.533333 z M 302.4,58 c 0,-0.22 0.18,-0.4 0.4,-0.4 0.22,0 0.4,0.18 0.4,0.4 0,0.22 -0.18,0.4 -0.4,0.4 -0.22,0 -0.4,-0.18 -0.4,-0.4 z m 14.4,-35.6 c 0,-0.586667 0.24,-0.826667 0.53333,-0.533333 0.29334,0.293333 0.29334,0.773333 0,1.066666 C 317.04,23.226667 316.8,22.986667 316.8,22.4 Z M 305.6,9.2 c 0,-0.22 0.18,-0.4 0.4,-0.4 0.22,0 0.4,0.18 0.4,0.4 0,0.22 -0.18,0.4 -0.4,0.4 -0.22,0 -0.4,-0.18 -0.4,-0.4 z"
       id="path1" />
  </g>
</svg>
